  <svg xmlns="http://www.w3.org/2000/svg" width="173.5" height="40.97" viewBox="0 0 173.5 40.97">
                <g id="libyapost3" transform="translate(0 -0.036)">
                  <path id="Path_1" data-name="Path 1"
                    d="M102,25.6a2.354,2.354,0,0,0-.8-.2,1.884,1.884,0,0,0-.8.2,1.7,1.7,0,0,0-.6.6,2.354,2.354,0,0,0-.2.8,2.354,2.354,0,0,0,.2.8,1.724,1.724,0,0,0,.6.6,1.2,1.2,0,0,0,.8.2,2.354,2.354,0,0,0,.8-.2.9.9,0,0,0,.6-.6,1.2,1.2,0,0,0,.2-.8,1.884,1.884,0,0,0-.2-.8A.9.9,0,0,0,102,25.6ZM169.9,7.2V18.1a1.664,1.664,0,0,1-1.9,1.8h-5.7V7.2h-3.7V23.1a1.654,1.654,0,0,1-1.9,1.9h-3.3v3.7h3.3c3.4,0,5.3-1.7,5.5-5h5.7c3.7,0,5.6-1.9,5.6-5.6V7.2h-3.6ZM106.7,25.6a2.354,2.354,0,0,0-.8-.2,1.884,1.884,0,0,0-.8.2,1.7,1.7,0,0,0-.6.6,2.354,2.354,0,0,0-.2.8,2.354,2.354,0,0,0,.2.8,1.724,1.724,0,0,0,.6.6,1.2,1.2,0,0,0,.8.2,2.354,2.354,0,0,0,.8-.2.9.9,0,0,0,.6-.6,1.2,1.2,0,0,0,.2-.8,1.884,1.884,0,0,0-.2-.8A1.7,1.7,0,0,0,106.7,25.6Zm-23,0a2.354,2.354,0,0,0-.8-.2,1.884,1.884,0,0,0-.8.2,1.7,1.7,0,0,0-.6.6,2.354,2.354,0,0,0-.2.8,2.354,2.354,0,0,0,.2.8,1.724,1.724,0,0,0,.6.6,1.2,1.2,0,0,0,.8.2,2.354,2.354,0,0,0,.8-.2.9.9,0,0,0,.6-.6,1.2,1.2,0,0,0,.2-.8,1.884,1.884,0,0,0-.2-.8A.9.9,0,0,0,83.7,25.6Zm20-3a5.824,5.824,0,0,0,3.7,1.1h3.1c3.7,0,5.6-1.9,5.6-5.6V2.2h-3.6V18.1a1.664,1.664,0,0,1-1.9,1.8h-3c-1.3,0-1.9-.6-1.9-1.8V7.2h-3.6V18.1a1.664,1.664,0,0,1-1.9,1.8h-4c-1.3,0-1.9-.6-1.9-1.8V7.2H90.7V18.1a1.664,1.664,0,0,1-1.9,1.8h-4c-1.3,0-1.9-.6-1.9-1.8V7.2H79.3V18.1a1.664,1.664,0,0,1-1.9,1.8H74c-1.3,0-1.9-.6-1.9-1.8V2.2H68.5V18.1c0,3.7,1.9,5.6,5.6,5.6h3.4a5.824,5.824,0,0,0,3.7-1.1,5.824,5.824,0,0,0,3.7,1.1h4a5.824,5.824,0,0,0,3.7-1.1,5.824,5.824,0,0,0,3.7,1.1h4a5.754,5.754,0,0,0,3.4-1.1Zm-10.8,3a2.354,2.354,0,0,0-.8-.2,1.884,1.884,0,0,0-.8.2,1.7,1.7,0,0,0-.6.6,2.354,2.354,0,0,0-.2.8,2.354,2.354,0,0,0,.2.8,1.724,1.724,0,0,0,.6.6,1.2,1.2,0,0,0,.8.2,2.354,2.354,0,0,0,.8-.2.9.9,0,0,0,.6-.6,1.2,1.2,0,0,0,.2-.8,1.884,1.884,0,0,0-.2-.8A1.7,1.7,0,0,0,92.9,25.6Zm50.4,2.3a1.2,1.2,0,0,0,.2-.8,1.884,1.884,0,0,0-.2-.8.9.9,0,0,0-.6-.6,2.354,2.354,0,0,0-.8-.2,1.884,1.884,0,0,0-.8.2,1.7,1.7,0,0,0-.6.6,2.353,2.353,0,0,0-.2.8,2.354,2.354,0,0,0,.2.8,1.724,1.724,0,0,0,.6.6,1.2,1.2,0,0,0,.8.2,2.354,2.354,0,0,0,.8-.2A1.7,1.7,0,0,0,143.3,27.9Zm24.2.8a2.354,2.354,0,0,0,.8-.2.9.9,0,0,0,.6-.6,1.2,1.2,0,0,0,.2-.8,1.884,1.884,0,0,0-.2-.8.9.9,0,0,0-.6-.6,2.354,2.354,0,0,0-.8-.2,1.884,1.884,0,0,0-.8.2,1.7,1.7,0,0,0-.6.6,2.353,2.353,0,0,0-.2.8,2.354,2.354,0,0,0,.2.8,1.724,1.724,0,0,0,.6.6A1.884,1.884,0,0,0,167.5,28.7Zm-21.8-.3a1.2,1.2,0,0,0,.8.2,2.354,2.354,0,0,0,.8-.2.9.9,0,0,0,.6-.6,1.2,1.2,0,0,0,.2-.8,1.884,1.884,0,0,0-.2-.8.9.9,0,0,0-.6-.6,2.354,2.354,0,0,0-.8-.2,1.884,1.884,0,0,0-.8.2,1.7,1.7,0,0,0-.6.6,2.353,2.353,0,0,0-.2.8,2.354,2.354,0,0,0,.2.8A1.7,1.7,0,0,0,145.7,28.4Zm7.7-21.2h-3.6V18.1a1.664,1.664,0,0,1-1.9,1.8H137.6a11.075,11.075,0,0,0,.2-1.9V7.2H134V18.1a1.664,1.664,0,0,1-1.9,1.8h-9.3v3.7h25c3.7,0,5.6-1.9,5.6-5.6V7.2ZM79.7,27.9a1.2,1.2,0,0,0,.2-.8,1.884,1.884,0,0,0-.2-.8.9.9,0,0,0-.6-.6,2.354,2.354,0,0,0-.8-.2,1.884,1.884,0,0,0-.8.2,1.7,1.7,0,0,0-.6.6,2.354,2.354,0,0,0-.2.8,2.354,2.354,0,0,0,.2.8,1.724,1.724,0,0,0,.6.6,1.2,1.2,0,0,0,.8.2,2.354,2.354,0,0,0,.8-.2Zm-9.8,4.5H68.4V40h4.3l.1-.8H69.9Zm9.3,7.7h1.5V32.5H79.2Zm13.5-3.4c-.1-.2-.3-.3-.5-.5a6.89,6.89,0,0,0-.8-.3.764.764,0,0,0,.5-.2.781.781,0,0,0,.4-.4,2.186,2.186,0,0,0,.3-.5,1.483,1.483,0,0,0,.1-.7,1.884,1.884,0,0,0-.2-.8,1.7,1.7,0,0,0-.6-.6,1.9,1.9,0,0,0-.9-.3,3.75,3.75,0,0,0-1.1-.1H87.7V40h2.6a5.283,5.283,0,0,0,1.3-.1,1.884,1.884,0,0,0,.9-.4,1.794,1.794,0,0,0,.5-.7,2.92,2.92,0,0,0,.2-.9,1.7,1.7,0,0,0-.1-.7,1,1,0,0,1-.4-.5Zm-3.4-3.5h.4a1.268,1.268,0,0,1,.6.1c.2,0,.3.1.5.2a1.381,1.381,0,0,1,.3.4,1.083,1.083,0,0,1,.1.6V35c0,.1-.1.2-.1.3s-.1.1-.1.2l-.1.1c-.1.1-.2.1-.4.1h-1V33.2Zm2.2,5.3c0,.1-.1.3-.1.4a.215.215,0,0,1-.2.2c-.1.1-.1.1-.2.1s-.1.1-.2.1a.367.367,0,0,0-.3.1H89.4V36.5h.5a1.7,1.7,0,0,1,1.3.4,1.366,1.366,0,0,1,.4,1.1.749.749,0,0,0-.1.5ZM102,36.2l-1.9-3.7H98.3l2.5,4.7v2.9h1.5V37.2l2.5-4.7H104l-2,3.7Zm11-3.7-3,7.6h1l.9-2.5h2.8l.9,2.6h1.7l-2.8-7.8-1.5.1Zm-.8,4.3,1.2-3.3,1.1,3.3h-2.3Zm23-3.9a1.884,1.884,0,0,0-.9-.4,3.73,3.73,0,0,0-1.2-.2h-2.3v7.6h1.5V33h.6a.749.749,0,0,1,.5.1c.2.1.3.1.4.3a2.186,2.186,0,0,1,.3.5,1.483,1.483,0,0,1,.1.7,1.949,1.949,0,0,1-.1.8,1.2,1.2,0,0,1-.8.8c-.2.1-.4.1-.6.2h-.2l.1.6h.1a5.9,5.9,0,0,0,1.4-.2,3.128,3.128,0,0,0,1-.5,2.407,2.407,0,0,0,.6-.8,2.958,2.958,0,0,0,.2-1,2.92,2.92,0,0,0-.2-.9,1.531,1.531,0,0,0-.5-.7Zm13.5.5a3.6,3.6,0,0,0-1.2-.8,4.309,4.309,0,0,0-1.7-.3,4.671,4.671,0,0,0-1.7.3,2.258,2.258,0,0,0-1.1.8,3.458,3.458,0,0,0-.7,1.2,6.5,6.5,0,0,0,0,3.2A2.4,2.4,0,0,0,143,39a4.44,4.44,0,0,0,1.1.8,4.309,4.309,0,0,0,1.7.3,4.671,4.671,0,0,0,1.7-.3,2.55,2.55,0,0,0,1.2-.8,2.925,2.925,0,0,0,.7-1.2,4.145,4.145,0,0,0,.2-1.6,7.773,7.773,0,0,0-.2-1.6A2.4,2.4,0,0,0,148.7,33.4Zm-.7,3.7c0,.3-.1.6-.1.8a1.421,1.421,0,0,1-.2.6c-.1.2-.1.3-.2.3a4.875,4.875,0,0,1-.7.3,3.083,3.083,0,0,1-1,.1,2.958,2.958,0,0,1-1-.2,1.167,1.167,0,0,1-.6-.6,1.689,1.689,0,0,1-.3-1,4.868,4.868,0,0,1-.1-1.2,9.722,9.722,0,0,1,.1-1.8c.1-.4.2-.7.4-.8a4.875,4.875,0,0,1,.7-.3,2.769,2.769,0,0,1,.9-.1,2.958,2.958,0,0,1,1,.2,1.344,1.344,0,0,1,.7.6,3.552,3.552,0,0,1,.4.9,5.283,5.283,0,0,1,.1,1.3,2.768,2.768,0,0,1-.1.9Zm12.4-.8a2.092,2.092,0,0,0-.6-.4,4.875,4.875,0,0,0-.7-.3c-.2-.1-.5-.2-.7-.3l-.6-.3a1.38,1.38,0,0,1-.4-.3.764.764,0,0,1-.2-.5.749.749,0,0,1,.1-.5c0-.1.1-.2.2-.3s.2-.1.4-.1h.9a.749.749,0,0,1,.5.1,4.332,4.332,0,0,1,.5.1c.2,0,.3.1.5.1l.2-1.1a2.769,2.769,0,0,0-.9-.1c-.3,0-.7-.1-1-.1a5.019,5.019,0,0,0-1.2.2,4.053,4.053,0,0,0-.9.5,1.794,1.794,0,0,0-.5.7,1.854,1.854,0,0,0-.2.7,2.92,2.92,0,0,0,.2.9,1.838,1.838,0,0,0,1,1,4.875,4.875,0,0,0,.7.3c.2.1.5.2.7.3l.6.3a1.38,1.38,0,0,1,.4.3.764.764,0,0,1,.2.5,1.483,1.483,0,0,1-.1.7q-.15.3-.3.3a2.22,2.22,0,0,1-.9.1,1.268,1.268,0,0,1-.6-.1,1.421,1.421,0,0,1-.6-.2c-.2-.1-.4-.1-.6-.2s-.3-.2-.4-.2l-.4,1.1c.2.1.3.2.5.2.2.1.3.1.5.2.2,0,.4.1.6.1h.7a3.73,3.73,0,0,0,1.2-.2,1.934,1.934,0,0,0,.9-.5,1.555,1.555,0,0,0,.6-.8,3.091,3.091,0,0,0,.2-.8,2,2,0,0,0-.2-.9.683.683,0,0,0-.3-.5Zm6-3.1h2.3V40h1.5V33.2l2.3-.1.1-.8h-6.1l-.1.9Z"
                    fill="#214fac" />
                  <path id="Path_2" data-name="Path 2" d="M36.3,12.6a6.4,6.4,0,0,1-1,2.6A4,4,0,0,0,36.3,12.6Z"
                    fill="#214fac" />
                  <path id="Path_3" data-name="Path 3"
                    d="M7.6,13.1c3.2-.2,7,2.2,11.1,3.5,5.6,1.8,13.8,1.7,16.6-1.4a4.9,4.9,0,0,0,1-2.6c0-1.8-1.1-4.1-3.9-6.9C29,2.1,31-.9,36.5,1.1c1.1.4,2.2.7,3.2,1-1.3-.5-2.5-1-3.8-1.5-5.4-2-7.8,1.7-4.4,5.1C43,17.3,26.5,19,17.9,15.9c-4.1-1.4-7-3.1-10.1-3.1-1.6-.2-4.1,1.2-5.1,3.1.1,0,.1-.1.2-.1a5.6,5.6,0,0,1,4.7-2.7Z"
                    fill="#3259a8" />
                  <path id="Path_4" data-name="Path 4"
                    d="M37.1,1.8c9.1,3.7,16.2,3.9,22.9.8a43.806,43.806,0,0,1-20.3-.5,29.925,29.925,0,0,1-3.2-1c-5.5-2-7.4,1.1-4.1,4.6,2.8,2.9,3.9,5.2,3.9,6.9a4,4,0,0,1-1,2.6c-2.8,3.1-11,3.2-16.6,1.4-4.1-1.4-7.9-3.7-11.1-3.5a5.49,5.49,0,0,0-4.7,2.8c-.1,0-.1.1-.2.1A7.267,7.267,0,0,0,0,19a4.906,4.906,0,0,1,6.1,1.2c3,3.4,7.7,10.6,15,11.1-3-.8-5.6-2.6-8.8-8.3-1.7-2.9-5.3-4.8-8.7-5.2.6-2,2-4.1,5.9-3.8a35.384,35.384,0,0,1,8.1,2.6c14.6,6,27.5-1.4,17.9-10.9C31.9,2,33.6.5,37.1,1.8Z"
                    fill="#fedd00" />
                  <path id="Path_5" data-name="Path 5"
                    d="M53.9,29.3C55,15.8,44.7,9.9,40.7,8.9,52.1,13.3,53.7,22.6,53.9,29.3ZM41.8,40.1c-5.1-.9-8.4-5.5-11.8-12.9C33.8,34.3,35.8,37.7,41.8,40.1Zm8.4-4.6c2-6.2-2-15.6-11-22.2C45.3,17.8,51.4,27,50.2,35.5ZM39,4.9c8.9.8,15.5,8,15.7,17.5A17.822,17.822,0,0,1,37.2,40.1,17.438,17.438,0,0,1,20.6,29a17.692,17.692,0,0,0,17,12A17.887,17.887,0,0,0,55.4,22.7a17.977,17.977,0,0,0-17-17.9H39ZM36.9,40.7c-5.4-1.2-6.3-1.4-10.8-6.2C30.7,39.2,32.1,39.3,36.9,40.7Zm9.3-2.3A111.72,111.72,0,0,0,35.8,20.7c4.6,6.5,6.3,11.3,10.4,17.7ZM20.9,31.2C36.3,34,50.4,26.4,54.7,9.8c-4.8,16-18.9,23.7-33.8,21.4Zm5.4,6.5c16.1.9,27.6-6,30.7-20.8C53.4,31,41.9,38,26.3,37.7Z"
                    fill="#214fac" fill-rule="evenodd" />
                </g>
              </svg>