<svg width="169" height="71" viewBox="0 0 169 71" fill="none" xmlns="http://www.w3.org/2000/svg"><path d="M30.3145 68.2241L31.2289 68.055C31.3042 69.2911 32.346 70.1716 33.7235 70.1716C34.9621 70.1716 35.7261 69.5069 35.7261 68.6381C35.7261 67.9383 35.2341 67.5243 34.0823 67.2503L32.809 66.9587C31.4141 66.6322 30.7543 65.9908 30.7543 64.9295C30.7543 63.5009 31.8135 62.498 33.4283 62.498C34.8695 62.498 35.9634 63.4076 36.1891 64.7371L35.3036 64.9645C35.1936 63.9966 34.4412 63.3318 33.4399 63.3318C32.3691 63.3318 31.6862 63.9499 31.6862 64.7721C31.6862 65.4485 32.1087 65.8333 33.1042 66.0549L34.3775 66.3465C35.8997 66.6847 36.6579 67.4019 36.6579 68.4865C36.6579 69.9384 35.5061 70.9996 33.7293 70.9996C31.9524 70.9996 30.4997 69.8509 30.3202 68.2182L30.3145 68.2241Z" fill="#E1E1DF"></path><path d="M48.7363 62.7851H51.9659C53.656 62.7851 54.8251 63.788 54.8251 65.1933C54.8251 66.5986 53.6386 67.5898 51.9659 67.5898H49.6392V70.7211H48.7363V62.7792V62.7851ZM51.9659 66.7502C53.0946 66.7502 53.8991 66.1088 53.8991 65.1933C53.8991 64.2778 53.1061 63.6189 51.9659 63.6189H49.6392V66.7502H51.9659Z" fill="#E1E1DF"></path><path d="M68.5186 62.787H69.6357L72.6743 70.7289H71.6904L70.9727 68.828H67.1701L66.4408 70.7289H65.4453L68.5071 62.787H68.5186ZM70.6949 67.9883L69.0859 63.7084H69.0627L67.4421 67.9883H70.6949Z" fill="#E1E1DF"></path><path d="M83.8096 66.7547C83.8096 64.154 85.3318 62.498 87.7453 62.498C89.4585 62.498 90.7839 63.5767 91.1428 65.2794L90.2572 65.4893C90.0257 64.1598 89.0418 63.326 87.7395 63.326C85.8932 63.326 84.7356 64.6555 84.7356 66.7488C84.7472 68.8305 86.0089 70.16 87.9884 70.16C89.5627 70.16 90.7145 69.1454 90.9518 67.5593L91.8431 67.7867C91.5421 69.746 90.0431 70.9938 87.9884 70.9938C85.4302 70.9938 83.8096 69.3378 83.8096 66.7488V66.7547Z" fill="#E1E1DF"></path><path d="M103.002 63.0077H108.39V63.8416H103.911V66.4422H107.945V67.2527H103.911V70.1099H108.506V70.9438H103.008V63.0019L103.002 63.0077Z" fill="#E1E1DF"></path><path d="M121.118 68.2241L122.033 68.055C122.108 69.2911 123.15 70.1716 124.527 70.1716C125.766 70.1716 126.53 69.5069 126.53 68.6381C126.53 67.9383 126.038 67.5243 124.886 67.2503L123.613 66.9587C122.218 66.6322 121.558 65.9908 121.558 64.9295C121.558 63.5009 122.617 62.498 124.232 62.498C125.673 62.498 126.767 63.4076 126.993 64.7371L126.107 64.9645C125.997 63.9966 125.245 63.3318 124.244 63.3318C123.173 63.3318 122.49 63.9499 122.49 64.7721C122.49 65.4485 122.912 65.8333 123.908 66.0549L125.181 66.3465C126.703 66.6847 127.462 67.4019 127.462 68.4865C127.462 69.9384 126.31 70.9996 124.533 70.9996C122.756 70.9996 121.303 69.8509 121.124 68.2182L121.118 68.2241Z" fill="#E1E1DF"></path><path d="M14.3797 28.7086C10.3972 27.3411 7.20422 25.4731 4.79429 23.1075C2.38436 20.739 1.17939 17.6256 1.17939 13.7704C1.17939 11.0354 1.9273 8.63106 3.41992 6.55746C4.91255 4.48088 7.0476 2.87206 9.8219 1.72502C12.5962 0.575007 15.8435 0 19.5639 0C26.164 0 31.6359 1.53732 35.9827 4.61495L35.433 14.5003C33.4961 12.9391 31.2811 11.6819 28.7945 10.7285C26.3047 9.7781 23.7253 9.30141 21.0565 9.30141C18.9598 9.30141 17.3905 9.64403 16.3421 10.3263C15.2938 11.0086 14.7696 11.9858 14.7696 13.255C14.7696 14.5241 15.3992 15.6473 16.6554 16.4786C17.9115 17.3068 19.8771 18.1887 22.5491 19.1153C27.4201 20.7747 31.2044 22.8275 33.902 25.2675C36.5996 27.7106 37.9484 31.0295 37.9484 35.2274C37.9484 40.0598 36.2736 43.8316 32.9208 46.5428C29.568 49.254 24.9079 50.6066 18.9342 50.6066C11.7588 50.6066 5.44631 48.6045 0 44.6033L0.706358 34.3485C3.37837 36.3506 6.16545 37.8879 9.07399 38.9634C11.9825 40.039 14.7696 40.5752 17.4416 40.5752C22.156 40.5752 24.5148 39.0141 24.5148 35.8888C24.5148 34.4736 23.7413 33.2521 22.1975 32.2272C20.6538 31.2023 18.0457 30.0285 14.3797 28.7116V28.7086Z" fill="#E1E1DF"></path><path d="M79.0052 0.0136719C92.0552 0.0136719 101.66 2.22432 107.819 6.64562C113.978 11.0669 117.056 17.2073 117.056 25.0667C117.056 32.9261 113.978 39.2512 107.819 43.6725C101.66 48.0938 92.0552 50.3044 79.0052 50.3044C65.9551 50.3044 55.7273 48.1236 49.8623 43.7649C43.9973 39.4061 41.0664 33.1734 41.0664 25.0667C41.0664 16.96 44.0165 10.912 49.9199 6.55326C55.8168 2.19155 65.5141 0.0136719 79.0052 0.0136719ZM54.4297 25.2306C54.4297 29.8485 56.3538 33.3551 60.1988 35.7505C64.0438 38.1459 70.2125 39.3436 78.7047 39.3436C95.1268 39.3436 103.338 34.6392 103.338 25.2335C103.338 15.8279 95.1268 11.1235 78.7047 11.1235C70.2125 11.1235 64.0438 12.3212 60.1988 14.7166C56.3538 17.109 54.4297 20.6156 54.4297 25.2335V25.2306Z" fill="#E1E1DF"></path><path d="M121.278 49.9518V0.662109L133.456 0.662109V49.9518H121.278Z" fill="#E1E1DF"></path><path d="M169 39.9175L168.37 49.9518H138.435V0.662109L150.612 0.662109V39.9175H168.997H169Z" fill="#E1E1DF"></path></svg>